<svg id="SvgjsSvg1000" xmlns="http://www.w3.org/2000/svg" version="1.1" xmlns:xlink="http://www.w3.org/1999/xlink" xmlns:svgjs="http://svgjs.com/svgjs" width="28" height="28" viewBox="0 0 28 28"><title>Rectangle 18</title><desc>Created with Avocode.</desc><defs id="SvgjsDefs1001"><filter id="SvgjsFilter1010" width="200%" height="200%" x="-50%" y="-50%"><feGaussianBlur id="SvgjsFeGaussianBlur1011" stdDeviation="0 " result="SvgjsFeGaussianBlur1011Out" in="SourceGraphic"></feGaussianBlur></filter><mask id="SvgjsMask1012"><path id="SvgjsPath1008" d="M158 487L158 459L186 459L186 487Z " fill="#ffffff"></path></mask></defs><path id="SvgjsPath1007" d="M158 487L158 459L186 459L186 487Z " fill="#f5f8fa" fill-opacity="1" transform="matrix(1,0,0,1,-158,-459)"></path><path id="SvgjsPath1009" d="M158 488L158 486L186 486L186 488Z " fill="#bcc3c9" fill-opacity="1" stroke-opacity="1" stroke-width="0" stroke="#bcc3c9" filter="url(#SvgjsFilter1010)" mask="url(&quot;#SvgjsMask1012&quot;)" transform="matrix(1,0,0,1,-158,-459)"></path><path id="SvgjsPath1013" d="M169.998 476.977L174.70786999999999 472.5L169.998 468.023L171.076 466.99800000000005L175.78561 471.47555000000006L175.92399999999998 471.34400000000005L177.00199999999998 472.36800000000005L176.86316 472.50000000000006L177.00199999999998 472.63200000000006L175.92399999999998 473.65600000000006L175.78561 473.52445000000006L171.076 478.00200000000007Z " fill="#303d80" fill-opacity="1" transform="matrix(1,0,0,1,-158,-459)"></path></svg>